<?xml version="1.0" encoding="UTF-8"?><svg id="a" xmlns="http://www.w3.org/2000/svg" viewBox="0 0 137.04 87.86"><path d="M114.84,2.92l-2.52,9.13c-.13.48-.64.76-1.12.62L68.87.04c-.28-.08-.59-.02-.82.16L26.13,33.82c-.12.1-.27.16-.42.19L.76,37.85c-.46.07-.79.49-.76.95l.11,1.43c.03.46.41.82.87.83l28.98.75h.33s21.41-11.43,21.41-11.43c.3-.16.66-.14.94.06l15.17,10.81c.24.17.38.44.38.74l-.13,14.35c0,.19.05.37.16.52l21.34,30.62c.17.24.44.38.73.38h6.75c.67,0,1.11-.72.79-1.31l-15.21-28.81c-.15-.28-.14-.62.03-.89l7.93-12.7c.09-.14.21-.25.35-.32l28.35-14.39c.29-.15.63-.13.9.05l8.1,5.4c.15.1.32.15.5.15h7.36c.71,0,1.14-.79.75-1.39L116.45,2.67c-.42-.64-1.4-.49-1.61.25Z" style="fill:#fff;"/></svg>